<svg width="232" height="16" viewBox="0 0 232 16" fill="none" xmlns="http://www.w3.org/2000/svg">
<g clip-path="url(#clip0_0_308)">
<path d="M4.0125 1.92C4.5925 1.92 5.095 1.9875 5.52 2.1225C5.95 2.2525 6.29 2.3925 6.54 2.5425C6.79 2.6875 6.94 2.7825 6.99 2.8275L6.2025 4.11C6.1275 4.045 5.9925 3.955 5.7975 3.84C5.6075 3.72 5.3725 3.6125 5.0925 3.5175C4.8175 3.4225 4.51 3.375 4.17 3.375C3.66 3.375 3.255 3.475 2.955 3.675C2.655 3.87 2.505 4.155 2.505 4.53C2.505 4.78 2.585 5 2.745 5.19C2.905 5.38 3.1325 5.5575 3.4275 5.7225C3.7275 5.8875 4.085 6.055 4.5 6.225C4.85 6.37 5.19 6.535 5.52 6.72C5.855 6.905 6.155 7.1225 6.42 7.3725C6.685 7.6225 6.895 7.9125 7.05 8.2425C7.21 8.5725 7.29 8.9525 7.29 9.3825C7.29 9.8325 7.1975 10.2325 7.0125 10.5825C6.8275 10.9275 6.5725 11.22 6.2475 11.46C5.9225 11.695 5.5475 11.875 5.1225 12C4.7025 12.12 4.2525 12.18 3.7725 12.18C3.1425 12.18 2.575 12.105 2.07 11.955C1.57 11.8 1.165 11.64 0.855 11.475C0.545 11.305 0.365 11.195 0.315 11.145L1.1475 9.8025C1.2075 9.8525 1.3175 9.9275 1.4775 10.0275C1.6425 10.1225 1.845 10.225 2.085 10.335C2.325 10.44 2.59 10.53 2.88 10.605C3.175 10.675 3.48 10.71 3.795 10.71C4.4 10.71 4.8575 10.58 5.1675 10.32C5.4775 10.055 5.6325 9.715 5.6325 9.3C5.6325 8.985 5.5325 8.7125 5.3325 8.4825C5.1375 8.2475 4.8675 8.035 4.5225 7.845C4.1825 7.655 3.795 7.4675 3.36 7.2825C2.915 7.0875 2.5025 6.8675 2.1225 6.6225C1.7475 6.3775 1.445 6.08 1.215 5.73C0.985 5.375 0.87 4.945 0.87 4.44C0.87 3.935 1.0125 3.495 1.2975 3.12C1.5875 2.74 1.97 2.445 2.445 2.235C2.92 2.025 3.4425 1.92 4.0125 1.92ZM27.2463 7.74H22.9038V12H21.3363V2.1H22.9038V6.3375H27.2463V2.1H28.8063V12H27.2463V7.74ZM44.4259 7.0425C44.4259 7.7225 44.5684 8.34 44.8534 8.895C45.1384 9.445 45.5309 9.8825 46.0309 10.2075C46.5309 10.5275 47.1059 10.6875 47.7559 10.6875C48.4159 10.6875 48.9934 10.5275 49.4884 10.2075C49.9884 9.8825 50.3784 9.445 50.6584 8.895C50.9434 8.34 51.0859 7.7225 51.0859 7.0425C51.0859 6.3625 50.9434 5.7475 50.6584 5.1975C50.3784 4.6475 49.9884 4.2125 49.4884 3.8925C48.9934 3.5725 48.4159 3.4125 47.7559 3.4125C47.1059 3.4125 46.5309 3.5725 46.0309 3.8925C45.5309 4.2125 45.1384 4.6475 44.8534 5.1975C44.5684 5.7475 44.4259 6.3625 44.4259 7.0425ZM42.7834 7.0425C42.7834 6.3225 42.9084 5.6525 43.1584 5.0325C43.4134 4.4075 43.7634 3.8625 44.2084 3.3975C44.6584 2.9325 45.1859 2.57 45.7909 2.31C46.3959 2.05 47.0509 1.92 47.7559 1.92C48.4709 1.92 49.1284 2.05 49.7284 2.31C50.3334 2.57 50.8609 2.9325 51.3109 3.3975C51.7609 3.8625 52.1084 4.4075 52.3534 5.0325C52.5984 5.6525 52.7209 6.3225 52.7209 7.0425C52.7209 7.7675 52.5984 8.4425 52.3534 9.0675C52.1134 9.6875 51.7709 10.2325 51.3259 10.7025C50.8809 11.1675 50.3559 11.53 49.7509 11.79C49.1459 12.05 48.4809 12.18 47.7559 12.18C47.0259 12.18 46.3559 12.05 45.7459 11.79C45.1409 11.53 44.6159 11.1675 44.1709 10.7025C43.7309 10.2325 43.3884 9.6875 43.1434 9.0675C42.9034 8.4425 42.7834 7.7675 42.7834 7.0425ZM66.7137 2.1H69.7587C70.3787 2.1 70.9387 2.205 71.4387 2.415C71.9437 2.625 72.3462 2.9475 72.6462 3.3825C72.9462 3.8175 73.0962 4.3775 73.0962 5.0625C73.0962 5.7475 72.9462 6.32 72.6462 6.78C72.3462 7.235 71.9437 7.5775 71.4387 7.8075C70.9387 8.0375 70.3787 8.1525 69.7587 8.1525H68.2887V12H66.7137V2.1ZM68.2887 6.8625H69.3237C69.7087 6.8625 70.0587 6.8075 70.3737 6.6975C70.6937 6.5825 70.9462 6.395 71.1312 6.135C71.3212 5.875 71.4162 5.53 71.4162 5.1C71.4162 4.665 71.3212 4.325 71.1312 4.08C70.9462 3.83 70.6937 3.6525 70.3737 3.5475C70.0587 3.4425 69.7087 3.39 69.3237 3.39H68.2887V6.8625ZM104.872 3.5775L104.977 3.5925V12H103.402V2.1H105.599L110.384 10.5L110.287 10.5225V2.1H111.854V12H109.649L104.872 3.5775ZM127.487 7.0425C127.487 7.7225 127.63 8.34 127.915 8.895C128.2 9.445 128.592 9.8825 129.092 10.2075C129.592 10.5275 130.167 10.6875 130.817 10.6875C131.477 10.6875 132.055 10.5275 132.55 10.2075C133.05 9.8825 133.44 9.445 133.72 8.895C134.005 8.34 134.147 7.7225 134.147 7.0425C134.147 6.3625 134.005 5.7475 133.72 5.1975C133.44 4.6475 133.05 4.2125 132.55 3.8925C132.055 3.5725 131.477 3.4125 130.817 3.4125C130.167 3.4125 129.592 3.5725 129.092 3.8925C128.592 4.2125 128.2 4.6475 127.915 5.1975C127.63 5.7475 127.487 6.3625 127.487 7.0425ZM125.845 7.0425C125.845 6.3225 125.97 5.6525 126.22 5.0325C126.475 4.4075 126.825 3.8625 127.27 3.3975C127.72 2.9325 128.247 2.57 128.852 2.31C129.457 2.05 130.112 1.92 130.817 1.92C131.532 1.92 132.19 2.05 132.79 2.31C133.395 2.57 133.922 2.9325 134.372 3.3975C134.822 3.8625 135.17 4.4075 135.415 5.0325C135.66 5.6525 135.782 6.3225 135.782 7.0425C135.782 7.7675 135.66 8.4425 135.415 9.0675C135.175 9.6875 134.832 10.2325 134.387 10.7025C133.942 11.1675 133.417 11.53 132.812 11.79C132.207 12.05 131.542 12.18 130.817 12.18C130.087 12.18 129.417 12.05 128.807 11.79C128.202 11.53 127.677 11.1675 127.232 10.7025C126.792 10.2325 126.45 9.6875 126.205 9.0675C125.965 8.4425 125.845 7.7675 125.845 7.0425ZM158.733 12H156.783L154.818 4.0575H155.111L153.138 12H151.188L149.051 2.1H150.851L152.261 9.9375H152.238L154.301 2.1H155.628L157.691 9.9375H157.661L159.078 2.1H160.878L158.733 12Z" fill="black"/>
<path fill-rule="evenodd" clip-rule="evenodd" d="M231.532 7.52782L226.049 2L225.387 2.66776L230.207 7.52782H192V8.52782H230.152L225.387 13.3322L226.049 14L231.477 8.52782H231.539V8.46463L232 8L231.539 7.53537V7.52782H231.532Z" fill="black"/>
</g>
<defs>
<clipPath id="clip0_0_308">
<rect width="232" height="16" fill="white"/>
</clipPath>
</defs>
</svg>
